<?xml version="1.0" encoding="UTF-8"?>
<svg version="1.1" xmlns="http://www.w3.org/2000/svg" width="100" height="100">
<path d="M0 0 C33 0 66 0 100 0 C100 33 100 66 100 100 C67 100 34 100 0 100 C0 67 0 34 0 0 Z " fill="#8D35D4" transform="translate(0,0)"/>
<path d="M0 0 C11.55 0 23.1 0 35 0 C35 0.66 35 1.32 35 2 C35.99 2 36.98 2 38 2 C38 2.99 38 3.98 38 5 C38.9590625 5.4021875 38.9590625 5.4021875 39.9375 5.8125 C42 7 42 7 43 10 C43.99 10.33 44.98 10.66 46 11 C46 11.66 46 12.32 46 13 C46.639375 13.268125 47.27875 13.53625 47.9375 13.8125 C50 15 50 15 51 18 C51.99 18 52.98 18 54 18 C54 18.99 54 19.98 54 21 C56.475 21.99 56.475 21.99 59 23 C59 23.66 59 24.32 59 25 C57.56274129 25.16873478 56.12518162 25.33490737 54.6875 25.5 C53.88699219 25.5928125 53.08648437 25.685625 52.26171875 25.78125 C47.48625181 26.2431259 47.48625181 26.2431259 45 25 C39.15230653 24.64229574 39.15230653 24.64229574 34 27 C33.08400573 29.40404738 33.08400573 29.40404738 32.75 32.125 C32.60046875 33.03507812 32.4509375 33.94515625 32.296875 34.8828125 C32.19890625 35.58148438 32.1009375 36.28015625 32 37 C33.65 37.33 35.3 37.66 37 38 C37 39.32 37 40.64 37 42 C35.35 42 33.7 42 32 42 C32 45.3 32 48.6 32 52 C31.34 52 30.68 52 30 52 C30.34227572 54.97065509 30.34227572 54.97065509 31 58 C31.66 58.33 32.32 58.66 33 59 C30.89651926 59.19504458 28.79217415 59.38078496 26.6875 59.5625 C25.51574219 59.66691406 24.34398437 59.77132812 23.13671875 59.87890625 C20 60 20 60 17 59 C15.10529184 58.9314505 13.2083166 58.91519628 11.3125 58.9375 C9.82169922 58.95103516 9.82169922 58.95103516 8.30078125 58.96484375 C7.16189453 58.98224609 7.16189453 58.98224609 6 59 C5.99373851 62.75152932 6.05330039 66.49921432 6.125 70.25 C6.12242187 71.31347656 6.11984375 72.37695312 6.1171875 73.47265625 C6.1569112 79.80043858 6.1569112 79.80043858 9.75 84.75 C12.96221968 85.98546911 14.54317794 86.35578583 17.875 85.75 C18.65617187 85.62109375 19.43734375 85.4921875 20.2421875 85.359375 C20.82226562 85.24078125 21.40234375 85.1221875 22 85 C22 84.34 22 83.68 22 83 C28.27 82.67 34.54 82.34 41 82 C41 82.66 41 83.32 41 84 C45.14700805 83.72368088 49.29224466 83.42639133 53.4375 83.125 C54.62150391 83.04636719 55.80550781 82.96773438 57.02539062 82.88671875 C58.15009766 82.80292969 59.27480469 82.71914062 60.43359375 82.6328125 C61.99678345 82.52283936 61.99678345 82.52283936 63.59155273 82.41064453 C64.78373413 82.20737549 64.78373413 82.20737549 66 82 C66.33 81.34 66.66 80.68 67 80 C68.32 80 69.64 80 71 80 C71.48718506 80.49129395 71.97437012 80.98258789 72.47631836 81.48876953 C73.89145431 83.19234247 73.89145431 83.19234247 76.05297852 83.29638672 C77.20431274 83.23862061 77.20431274 83.23862061 78.37890625 83.1796875 C79.21744141 83.1384375 80.05597656 83.0971875 80.91992188 83.0546875 C81.79197266 82.99539062 82.66402344 82.93609375 83.5625 82.875 C84.43841797 82.83890625 85.31433594 82.8028125 86.21679688 82.765625 C89.64070421 82.5981614 89.64070421 82.5981614 93 82 C95.28956157 78.56565764 95.03565427 77.0255011 94.58203125 73.03515625 C95 71 95 71 100 67 C100 77.89 100 88.78 100 100 C67 100 34 100 0 100 C0 67 0 34 0 0 Z " fill="#7832C0" transform="translate(0,0)"/>
<path d="M0 0 C0.77085938 -0.00257812 1.54171875 -0.00515625 2.3359375 -0.0078125 C4.625 0.125 4.625 0.125 6.46484375 0.625 C9.59133837 1.34867326 12.6091059 1.25663916 15.8125 1.25 C17.06417969 1.25257812 18.31585937 1.25515625 19.60546875 1.2578125 C22.50427536 1.470842 22.50427536 1.470842 23.625 0.125 C25.10148876 0.02676004 26.58275417 -0.00473519 28.0625 0 C29.26712891 -0.00386719 29.26712891 -0.00386719 30.49609375 -0.0078125 C32.625 0.125 32.625 0.125 34.625 1.125 C37.265 1.125 39.905 1.125 42.625 1.125 C42.625 6.405 42.625 11.685 42.625 17.125 C43.615 17.125 44.605 17.125 45.625 17.125 C45.61339844 16.05378906 45.60179687 14.98257813 45.58984375 13.87890625 C45.58046701 12.48177257 45.57136669 11.08463701 45.5625 9.6875 C45.55412109 8.98044922 45.54574219 8.27339844 45.53710938 7.54492188 C45.52846412 5.73806441 45.57279989 3.93112397 45.625 2.125 C47.73161259 0.01838741 52.02859843 0.61676674 54.9375 0.4375 C55.71029297 0.37755859 56.48308594 0.31761719 57.27929688 0.25585938 C61.35731473 -0.00011251 64.0515481 -0.10294678 67.625 2.125 C69.30154729 1.84557545 70.96759285 1.50168344 72.625 1.125 C75.43396781 0.8220721 77.7612892 0.89405558 80.625 1.125 C83.15182929 3.25701221 83.54934453 4.48949407 83.9375 7.75 C83.625 10.125 83.625 10.125 81.625 12.125 C82.615 13.61 82.615 13.61 83.625 15.125 C83.95560098 18.23264926 83.94769775 20.38020815 82.69921875 23.26171875 C79.32470459 26.29306197 75.51393418 25.88261394 71.125 26 C70.25746094 26.04640625 69.38992187 26.0928125 68.49609375 26.140625 C62.03773574 26.40015716 62.03773574 26.40015716 58.625 24.125 C58.625 23.465 58.625 22.805 58.625 22.125 C57.305 22.125 55.985 22.125 54.625 22.125 C54.13 23.61 54.13 23.61 53.625 25.125 C41.25 25.62 41.25 25.62 28.625 26.125 C28.625 25.465 28.625 24.805 28.625 24.125 C27.635 24.62 27.635 24.62 26.625 25.125 C23.74129667 25.19694869 20.88260336 25.21791708 18 25.1875 C17.19820312 25.18298828 16.39640625 25.17847656 15.5703125 25.17382812 C13.58850994 25.16203168 11.60674567 25.14409605 9.625 25.125 C9.625 25.785 9.625 26.445 9.625 27.125 C6.92460733 28.96126701 5.51434639 29.12097623 2.1875 29 C-1.9902387 27.97388874 -3.56546102 27.40279548 -6.375 24.125 C-7.00593802 20.19564319 -6.84375843 16.34156015 -6.6875 12.375 C-6.66494141 11.29605469 -6.64238281 10.21710938 -6.61914062 9.10546875 C-6.5602565 6.4439065 -6.47807001 3.78515772 -6.375 1.125 C-4.03562093 -0.04468953 -2.60130632 -0.00864221 0 0 Z " fill="#0B4219" transform="translate(12.375,57.875)"/>
<path d="M0 0 C11.55 0 23.1 0 35 0 C35 0.66 35 1.32 35 2 C35.99 2 36.98 2 38 2 C38 2.99 38 3.98 38 5 C38.9590625 5.4021875 38.9590625 5.4021875 39.9375 5.8125 C42 7 42 7 43 10 C43.99 10.33 44.98 10.66 46 11 C46 11.66 46 12.32 46 13 C46.639375 13.268125 47.27875 13.53625 47.9375 13.8125 C50 15 50 15 51 18 C51.99 18 52.98 18 54 18 C54 18.99 54 19.98 54 21 C56.475 21.99 56.475 21.99 59 23 C59 23.66 59 24.32 59 25 C57.56274129 25.16873478 56.12518162 25.33490737 54.6875 25.5 C53.88699219 25.5928125 53.08648437 25.685625 52.26171875 25.78125 C47.48625181 26.2431259 47.48625181 26.2431259 45 25 C39.15230653 24.64229574 39.15230653 24.64229574 34 27 C33.08400573 29.40404738 33.08400573 29.40404738 32.75 32.125 C32.60046875 33.03507812 32.4509375 33.94515625 32.296875 34.8828125 C32.19890625 35.58148438 32.1009375 36.28015625 32 37 C33.65 37.33 35.3 37.66 37 38 C37 39.32 37 40.64 37 42 C35.35 42 33.7 42 32 42 C32 45.3 32 48.6 32 52 C31.01 52 30.02 52 29 52 C28.34 50.35 27.68 48.7 27 47 C24.24358584 47.49756092 24.24358584 47.49756092 22 49 C19.66702567 49.04092937 17.33294775 49.04241723 15 49 C14.87625 48.360625 14.7525 47.72125 14.625 47.0625 C14.41875 46.381875 14.2125 45.70125 14 45 C13.34 44.67 12.68 44.34 12 44 C12.55429688 43.46890625 13.10859375 42.9378125 13.6796875 42.390625 C14.40414063 41.68421875 15.12859375 40.9778125 15.875 40.25 C16.59429688 39.55390625 17.31359375 38.8578125 18.0546875 38.140625 C21.81900102 33.99836836 22.44637465 30.66219919 22.3203125 25.1875 C21.8350246 21.87333877 20.43051784 20.22797468 18 18 C15.88339573 16.68834743 15.88339573 16.68834743 14 16 C14 15.34 14 14.68 14 14 C12.041036 14.30852185 10.08284287 14.6219418 8.125 14.9375 C6.48917969 15.19853516 6.48917969 15.19853516 4.8203125 15.46484375 C2.06178454 15.85551159 2.06178454 15.85551159 0 17 C0 11.39 0 5.78 0 0 Z " fill="#7F34CA" transform="translate(0,0)"/>
<path d="M0 0 C2.4375 1 2.4375 1 4 2 C4.33 1.67 4.66 1.34 5 1 C10.36911498 0.49767483 15.3103724 0.0876011 20.125 2.6875 C23.5499804 6.91164249 24.27716348 10.69092086 24.25 16.0625 C24.25773437 17.59583984 24.25773437 17.59583984 24.265625 19.16015625 C23.80291249 24.10709731 21.679933 26.76611949 18 30 C15.03650719 30.98783094 13.0287337 31.13410525 9.9375 31.125 C8.62072266 31.12886719 8.62072266 31.12886719 7.27734375 31.1328125 C5 31 5 31 3 30 C2.01 30.33 1.02 30.66 0 31 C-4.46473171 31.36005901 -6.95792027 31.49932987 -11 29.5625 C-13.90381914 25.84198173 -13.4379812 22.55500448 -13 18 C-11.35 18 -9.7 18 -8 18 C-8 16.68 -8 15.36 -8 14 C-9.65 13.67 -11.3 13.34 -13 13 C-13.49079755 5.63803681 -13.49079755 5.63803681 -11.125 2.5625 C-7.29616739 -0.2528181 -4.74970457 -0.24567437 0 0 Z " fill="#DD6707" transform="translate(45,24)"/>
<path d="M0 0 C0 0.66 0 1.32 0 2 C0.7425 2.226875 1.485 2.45375 2.25 2.6875 C5.73058231 4.34868701 7.07222253 5.64423922 9 9 C9.84291014 13.61472016 9.51016394 16.9992938 7.375 21.1875 C4.7267541 24.32358067 1.96885852 27.1660896 -1 30 C-0.67 30.99 -0.34 31.98 0 33 C-0.804375 33.12375 -1.60875 33.2475 -2.4375 33.375 C-3.283125 33.58125 -4.12875 33.7875 -5 34 C-5.33 34.66 -5.66 35.32 -6 36 C-11.5952381 41 -11.5952381 41 -14 41 C-14.04935509 35.62485095 -14.08569802 30.24983315 -14.10986328 24.87451172 C-14.11993484 23.04506127 -14.13359276 21.21562697 -14.15087891 19.38623047 C-14.17507677 16.76005066 -14.18647132 14.13408325 -14.1953125 11.5078125 C-14.20563507 10.68693146 -14.21595764 9.86605042 -14.22659302 9.02029419 C-14.22699184 7.01210858 -14.1224954 5.00444618 -14 3 C-10.07503936 -0.92496064 -5.24412188 -0.08740203 0 0 Z " fill="#34F97C" transform="translate(14,14)"/>
<path d="M0 0 C1.58294782 -0.05437607 3.16644256 -0.09296271 4.75 -0.125 C5.63171875 -0.14820313 6.5134375 -0.17140625 7.421875 -0.1953125 C10.14906426 0.01129275 11.71315408 0.52694159 14 2 C16.14162245 6.2832449 15.16125777 11.5208629 14 16 C14.33 16.99 14.66 17.98 15 19 C15.495 10.09 15.495 10.09 16 1 C19.3 1 22.6 1 26 1 C26 2.65 26 4.3 26 6 C24.68 6 23.36 6 22 6 C22 6.99 22 7.98 22 9 C23.32 9 24.64 9 26 9 C26 10.98 26 12.96 26 15 C24.68 15 23.36 15 22 15 C22 15.99 22 16.98 22 18 C23.32 18 24.64 18 26 18 C26 19.65 26 21.3 26 23 C22.7 23 19.4 23 16 23 C16 23.99 16 24.98 16 26 C13.29960733 27.83626701 11.88934639 27.99597623 8.5625 27.875 C4.3847613 26.84888874 2.80953898 26.27779548 0 23 C-0.63093802 19.07064319 -0.46875843 15.21656015 -0.3125 11.25 C-0.28994141 10.17105469 -0.26738281 9.09210938 -0.24414062 7.98046875 C-0.1852565 5.3189065 -0.10307001 2.66015772 0 0 Z " fill="#12A835" transform="translate(6,59)"/>
<path d="M0 0 C1.41655793 -0.0272415 2.83327045 -0.04650467 4.25 -0.0625 C5.43335938 -0.07990234 5.43335938 -0.07990234 6.640625 -0.09765625 C9 0 9 0 10.84765625 0.49609375 C13.97086878 1.22729959 16.98582875 1.13163559 20.1875 1.125 C21.43917969 1.12757812 22.69085937 1.13015625 23.98046875 1.1328125 C26.87927536 1.345842 26.87927536 1.345842 28 0 C29.47648876 -0.09823996 30.95775417 -0.12973519 32.4375 -0.125 C33.64212891 -0.12886719 33.64212891 -0.12886719 34.87109375 -0.1328125 C37 0 37 0 39 1 C40.37342831 1.0689472 41.75002102 1.08467708 43.125 1.0625 C45.043125 1.0315625 45.043125 1.0315625 47 1 C47 4.3 47 7.6 47 11 C46.67 11 46.34 11 46 11 C46 8.03 46 5.06 46 2 C44.35 2 42.7 2 41 2 C41 9.26 41 16.52 41 24 C46.61 24 52.22 24 58 24 C58 24.33 58 24.66 58 25 C45.625 25.495 45.625 25.495 33 26 C33 25.34 33 24.68 33 24 C32.01 24.495 32.01 24.495 31 25 C28.11629667 25.07194869 25.25760336 25.09291708 22.375 25.0625 C21.57320312 25.05798828 20.77140625 25.05347656 19.9453125 25.04882812 C17.96350994 25.03703168 15.98174567 25.01909605 14 25 C14 24.67 14 24.34 14 24 C17.3 24 20.6 24 24 24 C24 22.35 24 20.7 24 19 C22.68 19 21.36 19 20 19 C20 18.01 20 17.02 20 16 C21.32 16 22.64 16 24 16 C24 14.02 24 12.04 24 10 C22.68 10 21.36 10 20 10 C20 9.01 20 8.02 20 7 C21.32 7 22.64 7 24 7 C24 5.35 24 3.7 24 2 C20.7 2 17.4 2 14 2 C14 8.93 14 15.86 14 23 C11.86737876 19.80106814 11.40978452 17.77001757 11 14 C11.33 13.67 11.66 13.34 12 13 C12.07205511 11.31391034 12.08386068 9.62499341 12.0625 7.9375 C12.041875 6.308125 12.02125 4.67875 12 3 C6.06 2.01 6.06 2.01 0 1 C0 0.67 0 0.34 0 0 Z " fill="#0E371C" transform="translate(8,58)"/>
<path d="M0 0 C0 10.89 0 21.78 0 33 C-10.89 33 -21.78 33 -33 33 C-31.02 30.69 -29.04 28.38 -27 26 C-26.20078125 25.06414062 -25.4015625 24.12828125 -24.578125 23.1640625 C-17.52482053 15.47170024 -17.52482053 15.47170024 -11.5 15.0625 C-10.27796875 15.11083984 -10.27796875 15.11083984 -9.03125 15.16015625 C-8.3609375 15.10730469 -7.690625 15.05445312 -7 15 C-4.61672722 12.05431455 -4.61672722 12.05431455 -5.125 8.0625 C-5.2279262 4.77491596 -5.18843594 4.24314315 -3.0625 1.5 C-1 0 -1 0 0 0 Z " fill="#7630C7" transform="translate(100,67)"/>
<path d="M0 0 C7.59 0 15.18 0 23 0 C23 0.99 23 1.98 23 3 C23.99 3 24.98 3 26 3 C26 3.66 26 4.32 26 5 C26.66 5 27.32 5 28 5 C28 5.99 28 6.98 28 8 C28.99 8.33 29.98 8.66 31 9 C31 9.66 31 10.32 31 11 C31.99 11 32.98 11 34 11 C34.66 12.65 35.32 14.3 36 16 C34.57189185 17.50894446 33.13218981 19.00692345 31.6875 20.5 C30.88699219 21.3353125 30.08648437 22.170625 29.26171875 23.03125 C27 25 27 25 24 25 C24 24.34 24 23.68 24 23 C22.35 22.34 20.7 21.68 19 21 C19 20.01 19 19.02 19 18 C18.01 18 17.02 18 16 18 C14.640625 16.6796875 14.640625 16.6796875 13.25 14.875 C10.57180383 11.55080676 7.69551771 8.96018247 4.3203125 6.359375 C3 5 3 5 3 2 C2.01 2 1.02 2 0 2 C0 1.34 0 0.68 0 0 Z " fill="#32E9D2" transform="translate(35,0)"/>
<path d="M0 0 C13.2 0 26.4 0 40 0 C40 0.66 40 1.32 40 2 C38.68 2 37.36 2 36 2 C36 3.32 36 4.64 36 6 C34.68 6 33.36 6 32 6 C32 7.32 32 8.64 32 10 C30.35 10 28.7 10 27 10 C27 10.99 27 11.98 27 13 C25.95199219 12.57460938 25.95199219 12.57460938 24.8828125 12.140625 C21.7318323 11.66695302 21.7318323 11.66695302 18.9921875 14.421875 C17.93750309 15.51640895 16.89885177 16.62657162 15.875 17.75 C15.08802734 18.57757812 15.08802734 18.57757812 14.28515625 19.421875 C13.30395713 20.45523914 12.32906459 21.49465637 11.36279297 22.54199219 C9.94126793 24.06283553 8.47924594 25.53543235 7 27 C6.01 26.67 5.02 26.34 4 26 C5.18085967 22.92976485 6.78856342 21.21653355 9.1875 19.0625 C10.80602835 17.59616672 10.80602835 17.59616672 12 16 C12.04097782 13.18583884 12.04097782 13.18583884 11 11 C10.01 11 9.02 11 8 11 C6.3125 9.6875 6.3125 9.6875 5 8 C5 7.01 5 6.02 5 5 C4.34 5 3.68 5 3 5 C3 4.34 3 3.68 3 3 C2.01 3 1.02 3 0 3 C0 2.01 0 1.02 0 0 Z " fill="#7832C9" transform="translate(58,0)"/>
<path d="M0 0 C2.64 0 5.28 0 8 0 C9.2263757 2.45275141 9.11415314 4.0505781 9.09765625 6.7890625 C9.09443359 7.73007813 9.09121094 8.67109375 9.08789062 9.640625 C9.07951172 10.62546875 9.07113281 11.6103125 9.0625 12.625 C9.05798828 13.61757812 9.05347656 14.61015625 9.04882812 15.6328125 C9.03702145 18.0886016 9.020554 20.54427104 9 23 C7.35 23 5.7 23 4 23 C3.67 18.71 3.34 14.42 3 10 C2.67 13.3 2.34 16.6 2 20 C0.02 20 -1.96 20 -4 20 C-4.33 18.02 -4.66 16.04 -5 14 C-5.33 16.64 -5.66 19.28 -6 22 C-7.65 22 -9.3 22 -11 22 C-11 15.07 -11 8.14 -11 1 C-8.03 1 -5.06 1 -2 1 C-1.67 3.31 -1.34 5.62 -1 8 C-0.67 5.36 -0.34 2.72 0 0 Z " fill="#09EF43" transform="translate(71,59)"/>
<path d="M0 0 C1.32 0 2.64 0 4 0 C4.48082031 0.49113281 4.96164063 0.98226562 5.45703125 1.48828125 C6.91447405 3.21976151 6.91447405 3.21976151 9.26171875 3.29296875 C10.06222656 3.25816406 10.86273438 3.22335938 11.6875 3.1875 C12.89986328 3.14689453 12.89986328 3.14689453 14.13671875 3.10546875 C15.05904297 3.05326172 15.05904297 3.05326172 16 3 C14.58333054 4.69799389 13.15259248 6.38006877 11.69921875 8.046875 C10.63756555 9.26716603 9.59483839 10.50449875 8.58203125 11.765625 C5.78536134 14.99315442 3.72008064 16.39022858 -0.5625 17 C-4.21371898 17.15289862 -6.85067448 17.01206909 -10 15 C-13.94534278 11.05465722 -15.2984536 8.45986114 -16 3 C-14.92878906 2.95101562 -13.85757813 2.90203125 -12.75390625 2.8515625 C-11.35674361 2.77654706 -9.9596095 2.7009987 -8.5625 2.625 C-7.85544922 2.5940625 -7.14839844 2.563125 -6.41992188 2.53125 C-4.60760812 2.42719371 -2.80182012 2.22080108 -1 2 C-0.67 1.34 -0.34 0.68 0 0 Z " fill="#6966DE" transform="translate(67,80)"/>
<path d="M0 0 C0.61875 1.85625 0.61875 1.85625 1.25 3.75 C2.62755219 7.33671422 3.72703486 9.78853707 7 12 C9.65588474 12.59141351 12.29230796 12.78915513 15 13 C16.34084736 13.30169066 17.6806062 13.61517681 19 14 C17.8737793 15.48168945 17.8737793 15.48168945 16 17 C13.27270508 17.34057617 13.27270508 17.34057617 10.01953125 17.29296875 C8.85615234 17.28330078 7.69277344 17.27363281 6.49414062 17.26367188 C4.67172852 17.2259668 4.67172852 17.2259668 2.8125 17.1875 C1.58595703 17.17396484 0.35941406 17.16042969 -0.90429688 17.14648438 C-3.93663664 17.11108741 -6.96809996 17.0617076 -10 17 C-10.19762688 15.40862317 -10.38431877 13.81588591 -10.56640625 12.22265625 C-10.67154541 11.33586182 -10.77668457 10.44906738 -10.88500977 9.53540039 C-11.0508319 5.87921594 -10.26573442 3.85044007 -8 1 C-5.18542356 0.1958353 -2.9024753 0 0 0 Z " fill="#7149D2" transform="translate(51,83)"/>
<path d="M0 0 C1.875 0.6875 1.875 0.6875 2.875 1.6875 C4.70406235 1.89587419 6.53888134 2.05499659 8.375 2.1875 C13.76388889 2.57638889 13.76388889 2.57638889 14.875 3.6875 C14.94726502 5.54037502 14.9588122 7.39583878 14.9375 9.25 C14.92847656 10.26191406 14.91945313 11.27382813 14.91015625 12.31640625 C14.89855469 13.09886719 14.88695313 13.88132812 14.875 14.6875 C14.29492188 14.67589844 13.71484375 14.66429687 13.1171875 14.65234375 C8.5751754 14.59987826 4.34786431 14.76998937 -0.125 15.6875 C-0.125 15.0275 -0.125 14.3675 -0.125 13.6875 C-2.765 13.3575 -5.405 13.0275 -8.125 12.6875 C-7.70174417 10.89241499 -7.26089265 9.1014717 -6.8125 7.3125 C-6.56886719 6.31476562 -6.32523437 5.31703125 -6.07421875 4.2890625 C-4.89689145 1.0623136 -3.61682204 -0.53188559 0 0 Z " fill="#484F5A" transform="translate(79.125,45.3125)"/>
<path d="M0 0 C0.66 0 1.32 0 2 0 C2 5.28 2 10.56 2 16 C0.68 16 -0.64 16 -2 16 C-2 17.32 -2 18.64 -2 20 C-3.32 20 -4.64 20 -6 20 C-6.33 21.32 -6.66 22.64 -7 24 C-9.97 24 -12.94 24 -16 24 C-16 20.7 -16 17.4 -16 14 C-14.68 14 -13.36 14 -12 14 C-12 12.68 -12 11.36 -12 10 C-10.68 10 -9.36 10 -8 10 C-8 8.68 -8 7.36 -8 6 C-6.68 6 -5.36 6 -4 6 C-4 4.68 -4 3.36 -4 2 C-2.68 2 -1.36 2 0 2 C0 1.34 0 0.68 0 0 Z " fill="#F8F3FC" transform="translate(98,0)"/>
<path d="M0 0 C1.875 1.1875 1.875 1.1875 3 3 C3.1875 5.6875 3.1875 5.6875 3 8 C1.35 8 -0.3 8 -2 8 C-2 7.01 -2 6.02 -2 5 C-2.66 5 -3.32 5 -4 5 C-2.86802987 7.88137851 -1.98848055 9.00842887 0.5625 10.875 C3 13 3 13 4 16 C4 19 4 19 3.0625 21.375 C0.30270023 23.5493877 -1.68478054 23.51003048 -5.125 23.3203125 C-7 23 -7 23 -9 21.8125 C-10.30894168 19.44004321 -10.21620175 17.6664882 -10 15 C-8.68 14.67 -7.36 14.34 -6 14 C-6.66 13.484375 -7.32 12.96875 -8 12.4375 C-10 10 -10 10 -10.5 6.4375 C-10 3 -10 3 -8.375 1.0625 C-5.33957342 -0.295454 -3.29238472 -0.42030443 0 0 Z " fill="#09EF43" transform="translate(91,59)"/>
<path d="M0 0 C2.015625 0.1328125 2.015625 0.1328125 4 1 C5.046875 2.7421875 5.046875 2.7421875 5.75 4.875 C6.11351562 5.92300781 6.11351562 5.92300781 6.484375 6.9921875 C7 9 7 9 7 12 C7.66 12.33 8.32 12.66 9 13 C0.26882235 14.0421083 -7.40043966 13.8748591 -16 12 C-16.36391205 4.60045489 -16.36391205 4.60045489 -14.75 1.9375 C-13 1 -13 1 -11.25 1.3125 C-10.5075 1.539375 -9.765 1.76625 -9 2 C-5.41642759 2.25015873 -5.41642759 2.25015873 -2 2 C-1.34 1.34 -0.68 0.68 0 0 Z " fill="#656A71" transform="translate(24,46)"/>
<path d="M0 0 C6.15234375 -0.09765625 6.15234375 -0.09765625 8 0 C11.21106901 3.21106901 10.91404007 12.23912382 11.12890625 16.640625 C11.12569227 18.42759712 11.07002363 20.21439747 11 22 C9.35 22 7.7 22 6 22 C6 21.01 6 20.02 6 19 C5.01 19 4.02 19 3 19 C3 19.66 3 20.32 3 21 C1.02 21 -0.96 21 -3 21 C-2.69073032 18.24960167 -2.3777116 15.49971822 -2.0625 12.75 C-1.97548828 11.97269531 -1.88847656 11.19539063 -1.79882812 10.39453125 C-1.71181641 9.64042969 -1.62480469 8.88632813 -1.53515625 8.109375 C-1.456604 7.41811523 -1.37805176 6.72685547 -1.29711914 6.01464844 C-0.99455017 3.96304687 -0.53587616 2.00217465 0 0 Z " fill="#0DC72F" transform="translate(36,60)"/>
<path d="M0 0 C9.19869174 -0.49059689 9.19869174 -0.49059689 13.0625 1.875 C16.12756436 5.23668349 16.11440966 7.16076886 16.0625 11.625 C16.05347656 12.62789062 16.04445313 13.63078125 16.03515625 14.6640625 C16.02355469 15.43492188 16.01195313 16.20578125 16 17 C13.69 17 11.38 17 9 17 C8.67 13.04 8.34 9.08 8 5 C7.34 5 6.68 5 6 5 C6 8.96 6 12.92 6 17 C4.02 17 2.04 17 0 17 C0 11.39 0 5.78 0 0 Z " fill="#FD9F26" transform="translate(51,26)"/>
<path d="M0 0 C1.9375 1.0625 1.9375 1.0625 3 3 C3.13094599 5.74986589 3.14128616 8.27370031 3 11 C3 12.32 3 13.64 3 15 C3 15.66 3 16.32 3 17 C1.741875 17.020625 0.48375 17.04125 -0.8125 17.0625 C-1.52019531 17.07410156 -2.22789063 17.08570312 -2.95703125 17.09765625 C-5 17 -5 17 -8 16 C-8 14.35 -8 12.7 -8 11 C-7.01 10.67 -6.02 10.34 -5 10 C-4.67 8.35 -4.34 6.7 -4 5 C-4.66 5 -5.32 5 -6 5 C-6 6.65 -6 8.3 -6 10 C-8.31 10 -10.62 10 -13 10 C-13.2253459 6.69492676 -13.34500438 4.60786486 -11.6875 1.6875 C-8.11758736 -1.88241264 -4.59506018 -0.98465575 0 0 Z " fill="#F69B26" transform="translate(46,26)"/>
<path d="M0 0 C3.3 0 6.6 0 10 0 C10 1.65 10 3.3 10 5 C8.68 5 7.36 5 6 5 C6 5.99 6 6.98 6 8 C7.32 8 8.64 8 10 8 C10 9.98 10 11.96 10 14 C8.68 14 7.36 14 6 14 C6 14.99 6 15.98 6 17 C7.32 17 8.64 17 10 17 C10 18.65 10 20.3 10 22 C8.52093108 22.02689216 7.04172517 22.04634621 5.5625 22.0625 C4.32693359 22.07990234 4.32693359 22.07990234 3.06640625 22.09765625 C1 22 1 22 0 21 C-0.08685603 19.43827255 -0.10702219 17.87270656 -0.09765625 16.30859375 C-0.09443359 15.36435547 -0.09121094 14.42011719 -0.08789062 13.44726562 C-0.07951172 12.45404297 -0.07113281 11.46082031 -0.0625 10.4375 C-0.05798828 9.44041016 -0.05347656 8.44332031 -0.04882812 7.41601562 C-0.03700023 4.94398513 -0.01906415 2.47198528 0 0 Z " fill="#0DCF33" transform="translate(22,60)"/>
<path d="M0 0 C0.66 0 1.32 0 2 0 C3.26237731 2.52475462 3.09856404 4.31200466 3.0625 7.125 C3.05347656 8.03507812 3.04445313 8.94515625 3.03515625 9.8828125 C3.02355469 10.58148438 3.01195312 11.28015625 3 12 C5.31 12 7.62 12 10 12 C9.24362199 19.8663313 9.24362199 19.8663313 6 23 C3.08203125 23.390625 3.08203125 23.390625 -0.1875 23.25 C-1.27417969 23.21390625 -2.36085937 23.1778125 -3.48046875 23.140625 C-4.72763672 23.07101563 -4.72763672 23.07101563 -6 23 C-6 19.37 -6 15.74 -6 12 C-4.02 12 -2.04 12 0 12 C0 8.04 0 4.08 0 0 Z " fill="#C45E08" transform="translate(57,31)"/>
<path d="M0 0 C7.59 0 15.18 0 23 0 C23 0.99 23 1.98 23 3 C23.99 3 24.98 3 26 3 C26 3.66 26 4.32 26 5 C25.0925 5.0825 24.185 5.165 23.25 5.25 C19.50158965 6.11501777 18.20056715 6.86842368 16 10 C15.66551741 13.167832 15.66551741 13.167832 16 16 C11.74966265 13.87483132 9.24511935 11.16671919 6.33203125 7.5234375 C5.05635999 5.87027626 5.05635999 5.87027626 3 5 C3 4.01 3 3.02 3 2 C2.01 2 1.02 2 0 2 C0 1.34 0 0.68 0 0 Z " fill="#49A5CF" transform="translate(35,0)"/>
<path d="M0 0 C2.5625 1.5625 2.5625 1.5625 3.5625 2.5625 C3.86779612 5.65714993 3.84084765 8.76713583 3.875 11.875 C3.90400391 12.74318359 3.93300781 13.61136719 3.96289062 14.50585938 C4.02731167 20.96283002 4.02731167 20.96283002 1.54296875 24.16796875 C0.88941406 24.62816406 0.23585938 25.08835937 -0.4375 25.5625 C-1.4275 25.2325 -2.4175 24.9025 -3.4375 24.5625 C-2.7775 23.9025 -2.1175 23.2425 -1.4375 22.5625 C-1.60888787 20.98573158 -1.79965549 19.40907457 -2.078125 17.84765625 C-2.82123731 13.12243123 -3.06962132 8.32926841 -3.4375 3.5625 C-4.61119141 3.48902344 -4.61119141 3.48902344 -5.80859375 3.4140625 C-6.82050781 3.33929688 -7.83242187 3.26453125 -8.875 3.1875 C-10.38900391 3.08308594 -10.38900391 3.08308594 -11.93359375 2.9765625 C-12.75988281 2.83992188 -13.58617188 2.70328125 -14.4375 2.5625 C-14.7675 1.9025 -15.0975 1.2425 -15.4375 0.5625 C-10.51412388 -2.71975075 -5.17883308 -2.16569383 0 0 Z " fill="#59C7F1" transform="translate(96.4375,45.4375)"/>
<path d="M0 0 C8.81415929 -0.29380531 8.81415929 -0.29380531 12 2 C13.11445498 4.22890995 13.16480286 5.53055106 13.1875 8 C13.20167969 8.70125 13.21585938 9.4025 13.23046875 10.125 C13 12 13 12 11 14 C7.31975395 14.27629475 3.69505443 14.0859315 0 14 C0 9.38 0 4.76 0 0 Z " fill="#09E440" transform="translate(8,59)"/>
<path d="M0 0 C0.33 0 0.66 0 1 0 C1 7.59 1 15.18 1 23 C5.29 23.66 9.58 24.32 14 25 C14 26.66666667 14 28.33333333 14 30 C13.195625 30.12375 12.39125 30.2475 11.5625 30.375 C10.716875 30.58125 9.87125 30.7875 9 31 C8.67 31.66 8.34 32.32 8 33 C2.4047619 38 2.4047619 38 0 38 C0 25.46 0 12.92 0 0 Z " fill="#37CE74" transform="translate(0,17)"/>
<path d="M0 0 C3.26023324 0.22484367 4.93132641 0.5260489 7.625 2.25 C7.955 1.92 8.285 1.59 8.625 1.25 C13.99411498 0.74767483 18.9353724 0.3376011 23.75 2.9375 C27.1749804 7.16164249 27.90216348 10.94092086 27.875 16.3125 C27.88273437 17.84583984 27.88273437 17.84583984 27.890625 19.41015625 C27.62865182 22.2109578 27.06574562 23.86590904 25.625 26.25 C23.85661548 22.71323097 24.76092789 18.18819001 25.015625 14.27929688 C25.12611339 10.54686103 24.76066993 8.46163388 22.734375 5.30078125 C18.84447011 2.38956268 18.84447011 2.38956268 9.625 2.25 C9.625 11.49 9.625 20.73 9.625 30.25 C12.595 30.25 15.565 30.25 18.625 30.25 C18.625 30.58 18.625 30.91 18.625 31.25 C8.06691344 31.43451025 8.06691344 31.43451025 3.625 30.25 C4.099375 29.92 4.57375 29.59 5.0625 29.25 C7.41217662 26.24241393 7.6538793 22.9609902 7.625 19.25 C6.8206805 16.35234628 6.8206805 16.35234628 5.625 14.25 C5.955 13.92 6.285 13.59 6.625 13.25 C7.2498086 7.88321419 7.2498086 7.88321419 5.125 3.25 C1.50420862 1.80168345 -1.48783436 2.05564172 -5.375 2.25 C-3.375 0.25 -3.375 0.25 0 0 Z " fill="#3F2321" transform="translate(41.375,23.75)"/>
<path d="M0 0 C1.65 0 3.3 0 5 0 C5 5.61 5 11.22 5 17 C6.65 17 8.3 17 10 17 C10 18.65 10 20.3 10 22 C6.7 22 3.4 22 0 22 C0 14.74 0 7.48 0 0 Z " fill="#0DDA33" transform="translate(49,60)"/>
<path d="M0 0 C1.41655793 -0.0272415 2.83327045 -0.04650467 4.25 -0.0625 C5.43335938 -0.07990234 5.43335938 -0.07990234 6.640625 -0.09765625 C9 0 9 0 10.8125 0.5 C14.103899 1.25231977 17.39355344 1.10374178 20.75 1.0625 C21.44738281 1.05798828 22.14476563 1.05347656 22.86328125 1.04882812 C24.57555803 1.0371002 26.28779033 1.01916653 28 1 C27.48758893 7.02900687 26.930215 13.02004643 26 19 C24.02 19 22.04 19 20 19 C20 18.01 20 17.02 20 16 C21.32 16 22.64 16 24 16 C24 14.02 24 12.04 24 10 C22.68 10 21.36 10 20 10 C20 9.01 20 8.02 20 7 C21.32 7 22.64 7 24 7 C24 5.35 24 3.7 24 2 C20.7 2 17.4 2 14 2 C14 8.93 14 15.86 14 23 C11.86737876 19.80106814 11.40978452 17.77001757 11 14 C11.33 13.67 11.66 13.34 12 13 C12.07205511 11.31391034 12.08386068 9.62499341 12.0625 7.9375 C12.041875 6.308125 12.02125 4.67875 12 3 C6.06 2.01 6.06 2.01 0 1 C0 0.67 0 0.34 0 0 Z " fill="#05250C" transform="translate(8,58)"/>
<path d="M0 0 C0.61875 1.85625 0.61875 1.85625 1.25 3.75 C2.62755219 7.33671422 3.72703486 9.78853707 7 12 C9.65588474 12.59141351 12.29230796 12.78915513 15 13 C16.34084736 13.30169066 17.6806062 13.61517681 19 14 C17.30485209 16.08718537 16.42149525 16.92600255 13.73046875 17.3984375 C8.46550109 17.34991245 4.38358739 17.23550498 0 14 C-3.13805971 10.00427123 -4.50504549 6.07328369 -5 1 C-2 0 -2 0 0 0 Z " fill="#6C57D8" transform="translate(51,83)"/>
<path d="M0 0 C1.9375 0.5625 1.9375 0.5625 4 2 C4.875 5.5 4.875 5.5 5 9 C4.34 9.66 3.68 10.32 3 11 C3.99 12.485 3.99 12.485 5 14 C5.33029465 17.10476974 5.31572385 19.25926326 4.0859375 22.14453125 C0.6682528 25.18460659 -3.26518905 24.67882894 -7.6875 24.75 C-8.58017578 24.77964844 -9.47285156 24.80929688 -10.39257812 24.83984375 C-12.59514277 24.91051427 -14.79665131 24.96321939 -17 25 C-17 24.67 -17 24.34 -17 24 C-15.02 24 -13.04 24 -11 24 C-11 16.41 -11 8.82 -11 1 C-10.01 1.33 -9.02 1.66 -8 2 C-8.33 2.33 -8.66 2.66 -9 3 C-9.50125283 6.33142278 -9.50125283 6.33142278 -9 10 C-6.64581624 12.93973281 -6.64581624 12.93973281 -4 15 C-5.98 15 -7.96 15 -10 15 C-9.67 17.31 -9.34 19.62 -9 22 C-7.37581255 22.08090971 -5.75048255 22.13914995 -4.125 22.1875 C-3.22007813 22.22230469 -2.31515625 22.25710937 -1.3828125 22.29296875 C-0.59648438 22.19628906 0.18984375 22.09960938 1 22 C3.26579384 19.20223445 3.26579384 19.20223445 3 16.125 C1.95769091 12.86778411 1.49080205 12.31047395 -1.0625 10.3125 C-2.031875 9.549375 -3.00125 8.78625 -4 8 C-4 7.01 -4 6.02 -4 5 C-3.34 5 -2.68 5 -2 5 C-2 5.99 -2 6.98 -2 8 C-0.35 8 1.3 8 3 8 C1.69844994 3.92035719 1.69844994 3.92035719 0 0 Z " fill="#113828" transform="translate(91,59)"/>
<path d="M0 0 C1.051875 0.7115625 1.051875 0.7115625 2.125 1.4375 C6.95479637 4.06238933 11.76000359 3.467199 17 2 C17.33 2.33 17.66 2.66 18 3 C19.34747084 3.23075082 20.70377565 3.41153063 22.0625 3.5625 C23.361875 3.706875 24.66125 3.85125 26 4 C25.34 5.32 24.68 6.64 24 8 C21.03 8 18.06 8 15 8 C14.67 8.99 14.34 9.98 14 11 C13.67 10.01 13.34 9.02 13 8 C12.38511719 8 11.77023438 8 11.13671875 8 C1 8 1 8 -1 7 C-1.625 3.9375 -1.625 3.9375 -2 1 C-1.34 0.67 -0.68 0.34 0 0 Z " fill="#BD6E90" transform="translate(32,51)"/>
<path d="M0 0 C0 0.99 0 1.98 0 3 C0.99 3.33 1.98 3.66 3 4 C2.67 4.66 2.34 5.32 2 6 C1.05125 6.12375 0.1025 6.2475 -0.875 6.375 C-4.01938043 6.73513416 -4.01938043 6.73513416 -5.9375 8.6875 C-7.36056506 11.78475925 -6.81133498 13.75466007 -6 17 C-6.99 16.67 -7.98 16.34 -9 16 C-9 15.01 -9 14.02 -9 13 C-9.99 13 -10.98 13 -12 13 C-13.13243084 7.86050618 -13.13243084 7.86050618 -13 5 C-9.1004709 -0.09105188 -6.17367226 -1.50170406 0 0 Z " fill="#3FCAD1" transform="translate(63,5)"/>
<path d="M0 0 C0.7425 0.2475 1.485 0.495 2.25 0.75 C3.4875 1.100625 4.725 1.45125 6 1.8125 C7.0725 2.121875 8.145 2.43125 9.25 2.75 C9.25 3.41 9.25 4.07 9.25 4.75 C6.61 4.75 3.97 4.75 1.25 4.75 C0.92 5.41 0.59 6.07 0.25 6.75 C0.91 6.75 1.57 6.75 2.25 6.75 C2.25 7.74 2.25 8.73 2.25 9.75 C4.725 10.74 4.725 10.74 7.25 11.75 C6.59 12.41 5.93 13.07 5.25 13.75 C2.2109375 13.7265625 2.2109375 13.7265625 -1.375 13.375 C-2.56351562 13.26414062 -3.75203125 13.15328125 -4.9765625 13.0390625 C-5.89179687 12.94367187 -6.80703125 12.84828125 -7.75 12.75 C-7.32674417 10.95491499 -6.88589265 9.1639717 -6.4375 7.375 C-6.19386719 6.37726562 -5.95023437 5.37953125 -5.69921875 4.3515625 C-4.62805436 1.41577862 -3.43594096 -0.49084871 0 0 Z " fill="#525963" transform="translate(78.75,45.25)"/>
<path d="M0 0 C6.15234375 -0.09765625 6.15234375 -0.09765625 8 0 C9.81115956 1.81115956 9.38199448 4.61278227 9.5625 7.0625 C9.64628906 8.16722656 9.73007812 9.27195312 9.81640625 10.41015625 C9.87699219 11.26480469 9.93757813 12.11945313 10 13 C8.35 13 6.7 13 5 13 C4.67 11.02 4.34 9.04 4 7 C3.67 8.98 3.34 10.96 3 13 C1.68 13 0.36 13 -1 13 C-1.0272415 11.58344207 -1.04650467 10.16672955 -1.0625 8.75 C-1.07410156 7.96109375 -1.08570313 7.1721875 -1.09765625 6.359375 C-1.00385306 4.09308998 -0.63241063 2.1711105 0 0 Z " fill="#09F444" transform="translate(36,60)"/>
<path d="M0 0 C1.32 0 2.64 0 4 0 C4.48082031 0.49113281 4.96164063 0.98226562 5.45703125 1.48828125 C6.91447405 3.21976151 6.91447405 3.21976151 9.26171875 3.29296875 C10.06222656 3.25816406 10.86273438 3.22335938 11.6875 3.1875 C12.89986328 3.14689453 12.89986328 3.14689453 14.13671875 3.10546875 C15.05904297 3.05326172 15.05904297 3.05326172 16 3 C14.40097896 5.64665552 13.43322406 7.19335724 11 9 C5.91859273 10.06570548 0.83617823 9.97669746 -3.625 7.125 C-6 5 -6 5 -7 3 C-5.5459375 2.814375 -5.5459375 2.814375 -4.0625 2.625 C-2.5465625 2.315625 -2.5465625 2.315625 -1 2 C-0.67 1.34 -0.34 0.68 0 0 Z " fill="#6083E7" transform="translate(67,80)"/>
<path d="M0 0 C2.625 0.375 2.625 0.375 5 1 C4.67 1.99 4.34 2.98 4 4 C3.22140625 4.0515625 2.4428125 4.103125 1.640625 4.15625 C-1.22616147 4.73532426 -1.22616147 4.73532426 -2.328125 7.46875 C-2.78445312 8.96921875 -2.78445312 8.96921875 -3.25 10.5 C-4.96992481 15.96992481 -4.96992481 15.96992481 -6 17 C-7.68608966 17.07205511 -9.37500659 17.08386068 -11.0625 17.0625 C-11.98160156 17.05347656 -12.90070312 17.04445313 -13.84765625 17.03515625 C-14.55792969 17.02355469 -15.26820312 17.01195313 -16 17 C-14.87563746 13.62691239 -13.92657267 12.84876903 -11.25 10.625 C-8.00232083 7.87203898 -4.96525194 5.05246523 -2 2 C-1.34 1.34 -0.68 0.68 0 0 Z " fill="#AC4DE0" transform="translate(76,42)"/>
<path d="M0 0 C0.88910615 2.90980194 1.22167778 4.45319482 0.0625 7.3125 C-2.69352521 9.56742972 -4.64383143 9.51228871 -8.125 9.3203125 C-10 9 -10 9 -12 7.8125 C-13.30894168 5.44004321 -13.21620175 3.6664882 -13 1 C-8.60563789 0.14256349 -4.47427924 -0.08948558 0 0 Z " fill="#0DCA30" transform="translate(94,73)"/>
<path d="M0 0 C0.66 0 1.32 0 2 0 C2 5.28 2 10.56 2 16 C0.68 16 -0.64 16 -2 16 C-2 17.32 -2 18.64 -2 20 C-3.32 19.67 -4.64 19.34 -6 19 C-5.01 19 -4.02 19 -3 19 C-3 16.03 -3 13.06 -3 10 C-4.65 10 -6.3 10 -8 10 C-8 8.68 -8 7.36 -8 6 C-6.68 6 -5.36 6 -4 6 C-4 4.68 -4 3.36 -4 2 C-2.68 2 -1.36 2 0 2 C0 1.34 0 0.68 0 0 Z " fill="#E6D7F6" transform="translate(98,0)"/>
<path d="M0 0 C0 3.3 0 6.6 0 10 C-0.66 10 -1.32 10 -2 10 C-1.94199219 10.60328125 -1.88398437 11.2065625 -1.82421875 11.828125 C-1.75654297 13.02695312 -1.75654297 13.02695312 -1.6875 14.25 C-1.62949219 15.03890625 -1.57148437 15.8278125 -1.51171875 16.640625 C-2.21964593 20.06132915 -4.20768156 21.08275458 -7 23 C-7.16300888 20.28922278 -7.28128285 17.58833449 -7.375 14.875 C-7.42527344 14.11445312 -7.47554688 13.35390625 -7.52734375 12.5703125 C-7.61408908 9.21615962 -7.63994327 6.91306108 -5.67285156 4.10644531 C-1.63400206 0 -1.63400206 0 0 0 Z " fill="#834ED2" transform="translate(8,49)"/>
<path d="M0 0 C0.66 0.33 1.32 0.66 2 1 C1.67 1.99 1.34 2.98 1 4 C0.34 4 -0.32 4 -1 4 C-1.226875 4.556875 -1.45375 5.11375 -1.6875 5.6875 C-3.95600449 9.68438886 -6.61899946 12.53966649 -11 14 C-13.55218026 17.50707764 -13.43532546 21.56925698 -13.625 25.75 C-13.66367187 26.44738281 -13.70234375 27.14476563 -13.7421875 27.86328125 C-13.83598624 29.57510818 -13.91906174 31.28751682 -14 33 C-14.99 33 -15.98 33 -17 33 C-17.13559675 30.43571485 -17.23433188 27.87864784 -17.3125 25.3125 C-17.35439453 24.59126953 -17.39628906 23.87003906 -17.43945312 23.12695312 C-17.53529445 18.92910301 -17.33594622 17.43498564 -14.66796875 13.98046875 C-12 12 -12 12 -9 12 C-8.71125 11.360625 -8.4225 10.72125 -8.125 10.0625 C-7 8 -7 8 -5 7 C-4.690625 6.195625 -4.38125 5.39125 -4.0625 4.5625 C-3 2 -3 2 0 0 Z " fill="#7E5AC1" transform="translate(72,42)"/>
<path d="M0 0 C3.52819467 -0.40322225 4.74276145 -0.18545105 7.6875 1.9375 C8.450625 2.618125 9.21375 3.29875 10 4 C12.43387753 5.21693876 14.41838846 5.31959896 17.125 5.5625 C18.03507812 5.64628906 18.94515625 5.73007813 19.8828125 5.81640625 C20.58148438 5.87699219 21.28015625 5.93757813 22 6 C20.80078125 7.96875 20.80078125 7.96875 19 10 C14.17637716 11.12910965 9.9595114 10.47103287 5.5625 8.3125 C3.0234497 6.02116192 1.49056272 4.06393448 0 1 C0 0.67 0 0.34 0 0 Z " fill="#6574E1" transform="translate(55,83)"/>
<path d="M0 0 C2.97 0 5.94 0 9 0 C9 1.65 9 3.3 9 5 C7.68 5 6.36 5 5 5 C5 6.32 5 7.64 5 9 C5.99 9 6.98 9 8 9 C8 10.32 8 11.64 8 13 C5.36 13 2.72 13 0 13 C0 8.71 0 4.42 0 0 Z " fill="#09F845" transform="translate(23,60)"/>
<path d="M0 0 C0.99 0 1.98 0 3 0 C3 0.99 3 1.98 3 3 C3.66 3 4.32 3 5 3 C5 3.66 5 4.32 5 5 C5.99 5 6.98 5 8 5 C8 5.99 8 6.98 8 8 C8.66 8 9.32 8 10 8 C10.33 9.98 10.66 11.96 11 14 C8.69 14 6.38 14 4 14 C4 13.34 4 12.68 4 12 C3.01 12 2.02 12 1 12 C0.03929566 9.11788698 -0.10581883 7.30149956 -0.0625 4.3125 C-0.05347656 3.50425781 -0.04445312 2.69601563 -0.03515625 1.86328125 C-0.02355469 1.24839844 -0.01195312 0.63351563 0 0 Z " fill="#E7E3EE" transform="translate(0,84)"/>
<path d="M0 0 C1.64061341 11.35171902 1.64061341 11.35171902 -1.07958984 15.74267578 C-4.01404799 19.24833326 -7.4305945 22.16070017 -11 25 C-11.33 24.01 -11.66 23.02 -12 22 C-10.68 20.68 -9.36 19.36 -8 18 C-8.66 17.67 -9.32 17.34 -10 17 C-9.175 16.34 -8.35 15.68 -7.5 15 C-4.78989184 11.75897814 -4.78989184 11.75897814 -4.9375 7.9375 C-5 4 -5 4 -3.0625 1.5 C-1 0 -1 0 0 0 Z " fill="#934BAC" transform="translate(100,67)"/>
<path d="M0 0 C0.66 0.33 1.32 0.66 2 1 C1.01 2.485 1.01 2.485 0 4 C-0.39013716 5.9896995 -0.73202649 7.99019869 -1 10 C1.31 10 3.62 10 6 10 C6 8.35 6 6.7 6 5 C6.66 5 7.32 5 8 5 C8 6.65 8 8.3 8 10 C6.68 10.33 5.36 10.66 4 11 C4 12.65 4 14.3 4 16 C5.32 16.33 6.64 16.66 8 17 C8 18.65 8 20.3 8 22 C7.34 22 6.68 22 6 22 C6 20.68 6 19.36 6 18 C3.69 18 1.38 18 -1 18 C-0.67 20.64 -0.34 23.28 0 26 C-0.66 25.67 -1.32 25.34 -2 25 C-2 22.03 -2 19.06 -2 16 C-0.35 16 1.3 16 3 16 C3 14.68 3 13.36 3 12 C1.35 11.67 -0.3 11.34 -2 11 C-2.25 3.375 -2.25 3.375 0 0 Z " fill="#180D11" transform="translate(34,26)"/>
<path d="M0 0 C4.62 0 9.24 0 14 0 C12.515 2.475 12.515 2.475 11 5 C10.74863967 8.20916171 10.74863967 8.20916171 11 11 C7.25366514 9.75122171 5.58958203 7.93952555 3 5 C3 4.01 3 3.02 3 2 C2.01 2 1.02 2 0 2 C0 1.34 0 0.68 0 0 Z " fill="#5584CD" transform="translate(35,0)"/>
<path d="M0 0 C2.1385485 2.1385485 2.42655063 3.13275314 3 6 C5.31 6 7.62 6 10 6 C9.66260373 8.530472 9.3938922 9.6818563 7.375 11.3125 C3.91731628 12.31340845 1.47070318 11.86767579 -2 11 C-4.4375 8.9375 -4.4375 8.9375 -6 7 C-4.02 7 -2.04 7 0 7 C0 4.69 0 2.38 0 0 Z " fill="#2C4C17" transform="translate(13,75)"/>
<path d="M0 0 C0 3 0 3 -2.15234375 5.41015625 C-3.07144531 6.28542969 -3.99054687 7.16070312 -4.9375 8.0625 C-8.41202226 11.19960301 -8.41202226 11.19960301 -11 15 C-7.535 14.505 -7.535 14.505 -4 14 C-4 13.34 -4 12.68 -4 12 C-2.68 12 -1.36 12 0 12 C0 14 0 14 -1.5625 15.625 C-4.80680433 17.45512039 -7.33724439 17.21131282 -11 17 C-11.12375 16.360625 -11.2475 15.72125 -11.375 15.0625 C-11.58125 14.381875 -11.7875 13.70125 -12 13 C-12.66 12.67 -13.32 12.34 -14 12 C-11.96545738 9.81475052 -10.14417064 8.08502371 -7.5625 6.5625 C-4.57485635 4.74076607 -2.39677879 2.53373757 0 0 Z " fill="#A57BD6" transform="translate(26,32)"/>
<path d="M0 0 C1.65 0 3.3 0 5 0 C5 4.29 5 8.58 5 13 C3.35 13 1.7 13 0 13 C0 8.71 0 4.42 0 0 Z " fill="#09F946" transform="translate(49,60)"/>
<path d="M0 0 C0.33 0.66 0.66 1.32 1 2 C1.66 2 2.32 2 3 2 C3 2.99 3 3.98 3 5 C3.99 5 4.98 5 6 5 C6 5.66 6 6.32 6 7 C6.66 7.33 7.32 7.66 8 8 C2.06 8 -3.88 8 -10 8 C-10 5.69 -10 3.38 -10 1 C-9.67 1.99 -9.34 2.98 -9 4 C-8.01 4 -7.02 4 -6 4 C-6 4.66 -6 5.32 -6 6 C-3.69 6 -1.38 6 1 6 C0.67 4.02 0.34 2.04 0 0 Z " fill="#C09FE4" transform="translate(10,92)"/>
<path d="M0 0 C1.43739513 -0.02712066 2.87493863 -0.04645067 4.3125 -0.0625 C5.51326172 -0.07990234 5.51326172 -0.07990234 6.73828125 -0.09765625 C9 0 9 0 12 1 C12 7.27 12 13.54 12 20 C10.06540616 16.13081233 9.46677076 13.47693399 8.875 9.25 C8.70742188 8.07953125 8.53984375 6.9090625 8.3671875 5.703125 C8.24601562 4.81109375 8.12484375 3.9190625 8 3 C5.36 2.67 2.72 2.34 0 2 C0 1.34 0 0.68 0 0 Z " fill="#161723" transform="translate(36,58)"/>
<path d="M0 0 C0.33 0 0.66 0 1 0 C1.07347656 0.97839844 1.07347656 0.97839844 1.1484375 1.9765625 C1.57242229 6.93279853 2.15665573 11.33019451 4 16 C2.02 16 0.04 16 -2 16 C-3.01924246 9.78630501 -3.62926746 5.51648654 0 0 Z " fill="#753BCD" transform="translate(43,84)"/>
<path d="M0 0 C0 0.66 0 1.32 0 2 C-0.9075 2.226875 -1.815 2.45375 -2.75 2.6875 C-6.5118577 4.20671176 -7.88161177 5.57798825 -10 9 C-10 10.32 -10 11.64 -10 13 C-10.66 13 -11.32 13 -12 13 C-13.13243084 7.86050618 -13.13243084 7.86050618 -13 5 C-9.1004709 -0.09105188 -6.17367226 -1.50170406 0 0 Z " fill="#45B7D0" transform="translate(63,5)"/>
<path d="M0 0 C0.33 0 0.66 0 1 0 C1 6.93 1 13.86 1 21 C-0.65 21 -2.3 21 -4 21 C-4 18.03 -4 15.06 -4 12 C-2.68 12 -1.36 12 0 12 C0 8.04 0 4.08 0 0 Z " fill="#0DD132" transform="translate(79,61)"/>
<path d="M0 0 C1.875 0.8125 1.875 0.8125 2.875 2.8125 C1.555 2.8125 0.235 2.8125 -1.125 2.8125 C-1.125 3.4725 -1.125 4.1325 -1.125 4.8125 C-0.465 5.1425 0.195 5.4725 0.875 5.8125 C0.875 6.8025 0.875 7.7925 0.875 8.8125 C1.535 9.1425 2.195 9.4725 2.875 9.8125 C0.16620665 11.16689668 -2.13433268 10.87751451 -5.125 10.8125 C-5.48891205 3.41295489 -5.48891205 3.41295489 -3.875 0.75 C-2.125 -0.1875 -2.125 -0.1875 0 0 Z " fill="#4D555F" transform="translate(13.125,47.1875)"/>
<path d="M0 0 C0 0.66 0 1.32 0 2 C-0.804375 2.12375 -1.60875 2.2475 -2.4375 2.375 C-3.7059375 2.684375 -3.7059375 2.684375 -5 3 C-5.33 3.66 -5.66 4.32 -6 5 C-8.25559571 6.7850038 -10.63173408 8.36374355 -13 10 C-13 7.03 -13 4.06 -13 1 C-8.60587331 0.48304392 -4.42613977 0 0 0 Z " fill="#6CD193" transform="translate(14,45)"/>
<path d="M0 0 C0 0.66 0 1.32 0 2 C-1.670625 2.4021875 -1.670625 2.4021875 -3.375 2.8125 C-7.21840951 3.65809019 -7.21840951 3.65809019 -9 7 C-9.39013716 8.9896995 -9.73202649 10.99019869 -10 13 C-10.66 13 -11.32 13 -12 13 C-13.43436499 5.94770544 -13.43436499 5.94770544 -11.625 2 C-7.85043868 -0.87585625 -4.58517201 -0.44088192 0 0 Z " fill="#4F95CD" transform="translate(58,0)"/>
<path d="M0 0 C2.97851562 0.390625 2.97851562 0.390625 5.95703125 0.78125 C8.15471706 1.053233 8.15471706 1.053233 11 1 C9.19587357 4.26460973 8.16605307 5.88929795 5 8 C3.33333333 8 1.66666667 8 0 8 C0 5.36 0 2.72 0 0 Z " fill="#A43DDF" transform="translate(69,36)"/>
<path d="M0 0 C0 0.66 0 1.32 0 2 C-4.455 2.495 -4.455 2.495 -9 3 C-9.33 5.97 -9.66 8.94 -10 12 C-10.66 12 -11.32 12 -12 12 C-13.46985575 9.66552322 -14.00714985 8.28599403 -13.9375 5.5 C-11.24659704 -1.67574122 -6.46191423 -1.31428764 0 0 Z " fill="#37DCD3" transform="translate(69,11)"/>
<path d="M0 0 C2.12890625 0.92578125 2.12890625 0.92578125 4.5625 2.3125 C5.36816406 2.76238281 6.17382812 3.21226563 7.00390625 3.67578125 C9 5 9 5 10 7 C4.04296875 8.7578125 4.04296875 8.7578125 2 9 C-1 7 -1 7 -1.6875 3.875 C-1.790625 2.92625 -1.89375 1.9775 -2 1 C-1.34 0.67 -0.68 0.34 0 0 Z " fill="#C88B7E" transform="translate(32,51)"/>
<path d="M0 0 C0.66 0 1.32 0 2 0 C2 3.63 2 7.26 2 11 C-0.041875 10.9690625 -0.041875 10.9690625 -2.125 10.9375 C-5.85514162 10.9316072 -9.33462114 11.24812741 -13 12 C-13 11.34 -13 10.68 -13 10 C-13.99 9.67 -14.98 9.34 -16 9 C-14.7625 9.04125 -13.525 9.0825 -12.25 9.125 C-8.93622492 9.1308444 -6.85172441 8.79553019 -4 7 C-3.01 6.67 -2.02 6.34 -1 6 C-0.67 4.02 -0.34 2.04 0 0 Z " fill="#394750" transform="translate(92,49)"/>
<path d="M0 0 C0.99 0 1.98 0 3 0 C4.25664978 2.90600261 5 4.79604584 5 8 C5.66 8.33 6.32 8.66 7 9 C4.69 9 2.38 9 0 9 C-0.33 8.34 -0.66 7.68 -1 7 C-1.99 6.34 -2.98 5.68 -4 5 C-3.34 5 -2.68 5 -2 5 C-2 4.01 -2 3.02 -2 2 C-1.34 2 -0.68 2 0 2 C0 1.34 0 0.68 0 0 Z " fill="#444C57" transform="translate(26,50)"/>
<path d="M0 0 C0.33 1.32 0.66 2.64 1 4 C-0.32 4 -1.64 4 -3 4 C-3 6.97 -3 9.94 -3 13 C-3.33 13 -3.66 13 -4 13 C-4.33 10.36 -4.66 7.72 -5 5 C-10.94 10.445 -10.94 10.445 -17 16 C-17 13 -17 13 -14.375 10.08203125 C-13.25750594 8.98449244 -12.13214357 7.89492105 -11 6.8125 C-10.42765625 6.25369141 -9.8553125 5.69488281 -9.265625 5.11914062 C-7.85037212 3.73926907 -6.42602845 2.36873266 -5 1 C-4.67 1.66 -4.34 2.32 -4 3 C-2.68 3 -1.36 3 0 3 C0 2.01 0 1.02 0 0 Z " fill="#8F53D2" transform="translate(85,10)"/>
<path d="M0 0 C1.39572052 -0.02736707 2.79160221 -0.04655989 4.1875 -0.0625 C4.96480469 -0.07410156 5.74210938 -0.08570313 6.54296875 -0.09765625 C9 0 9 0 14 1 C14 8.26 14 15.52 14 23 C11.86737876 19.80106814 11.40978452 17.77001757 11 14 C11.33 13.67 11.66 13.34 12 13 C12.07205511 11.31391034 12.08386068 9.62499341 12.0625 7.9375 C12.041875 6.308125 12.02125 4.67875 12 3 C6.06 2.01 6.06 2.01 0 1 C0 0.67 0 0.34 0 0 Z " fill="#06100B" transform="translate(8,58)"/>
<path d="M0 0 C1.485 0.99 1.485 0.99 3 2 C3.29296875 5.2578125 3.29296875 5.2578125 3.1875 9.125 C3.16042969 10.40632813 3.13335937 11.68765625 3.10546875 13.0078125 C3.07066406 13.99523437 3.03585938 14.98265625 3 16 C2.01 16 1.02 16 0 16 C0 10.72 0 5.44 0 0 Z " fill="#713EAB" transform="translate(55,59)"/>
<path d="M0 0 C0.66 0 1.32 0 2 0 C2 5.28 2 10.56 2 16 C0.68 15.67 -0.64 15.34 -2 15 C-1.01 15 -0.02 15 1 15 C1 12.03 1 9.06 1 6 C-0.65 6 -2.3 6 -4 6 C-4 4.68 -4 3.36 -4 2 C-2.68 2 -1.36 2 0 2 C0 1.34 0 0.68 0 0 Z " fill="#D5BDEE" transform="translate(98,0)"/>
<path d="M0 0 C1.65 0 3.3 0 5 0 C5 2.64 5 5.28 5 8 C3.35 8 1.7 8 0 8 C0 5.36 0 2.72 0 0 Z " fill="#0DDD33" transform="translate(60,73)"/>
<path d="M0 0 C0.3125 3.25 0.3125 3.25 0 7 C-2.5 9.4375 -2.5 9.4375 -5 11 C-5.36717663 3.5340751 -5.36717663 3.5340751 -3.625 1 C-2 0 -2 0 0 0 Z " fill="#49A3F0" transform="translate(6,61)"/>
<path d="M0 0 C0.7425 0.2475 1.485 0.495 2.25 0.75 C3.4875 1.100625 4.725 1.45125 6 1.8125 C7.0725 2.121875 8.145 2.43125 9.25 2.75 C9.25 3.41 9.25 4.07 9.25 4.75 C5.25 4.75 1.25 4.75 -2.75 4.75 C-2.75 4.09 -2.75 3.43 -2.75 2.75 C-3.41 2.42 -4.07 2.09 -4.75 1.75 C-1.75 -0.25 -1.75 -0.25 0 0 Z " fill="#81858B" transform="translate(78.75,45.25)"/>
<path d="M0 0 C2.31 0.33 4.62 0.66 7 1 C7 2.98 7 4.96 7 7 C5.02 7 3.04 7 1 7 C0.67 4.69 0.34 2.38 0 0 Z " fill="#0DD433" transform="translate(66,72)"/>
<path d="M0 0 C3.63 0 7.26 0 11 0 C10.67 1.32 10.34 2.64 10 4 C6.7 4 3.4 4 0 4 C0 2.68 0 1.36 0 0 Z " fill="#E1D0F1" transform="translate(2,2)"/>
<path d="M0 0 C2.97 0 5.94 0 9 0 C8.67 2.64 8.34 5.28 8 8 C5.5 6.6875 5.5 6.6875 3 5 C3 4.01 3 3.02 3 2 C2.01 2 1.02 2 0 2 C0 1.34 0 0.68 0 0 Z " fill="#5E66CB" transform="translate(35,0)"/>
<path d="M0 0 C0.99 0.33 1.98 0.66 3 1 C2.67 1.33 2.34 1.66 2 2 C1.49874717 5.33142278 1.49874717 5.33142278 2 9 C4.35418376 11.93973281 4.35418376 11.93973281 7 14 C4.69 14.33 2.38 14.66 0 15 C0 10.05 0 5.1 0 0 Z " fill="#020B05" transform="translate(80,60)"/>
<path d="M0 0 C2.00841268 0.01421885 4.01537247 0.13420475 6.01953125 0.265625 C5.35953125 1.585625 4.69953125 2.905625 4.01953125 4.265625 C1.04953125 4.265625 -1.92046875 4.265625 -4.98046875 4.265625 C-3.72152968 1.74774686 -2.88459378 0.38688832 0 0 Z " fill="#AB43DF" transform="translate(51.98046875,54.734375)"/>
<path d="M0 0 C0.66 0 1.32 0 2 0 C2.33 1.98 2.66 3.96 3 6 C0.69 6 -1.62 6 -4 6 C-4 5.34 -4 4.68 -4 4 C-4.99 4 -5.98 4 -7 4 C-6.67 3.01 -6.34 2.02 -6 1 C-6 1.66 -6 2.32 -6 3 C-3.52733235 2.65555119 -3.52733235 2.65555119 -1 2 C-0.67 1.34 -0.34 0.68 0 0 Z " fill="#D6BFF0" transform="translate(8,92)"/>
<path d="M0 0 C0.99 0.33 1.98 0.66 3 1 C-0.63 4.63 -4.26 8.26 -8 12 C-8.33 11.01 -8.66 10.02 -9 9 C-8.01 8.34 -7.02 7.68 -6 7 C-5.67 6.01 -5.34 5.02 -5 4 C-2.625 1.75 -2.625 1.75 0 0 Z " fill="#8349CE" transform="translate(97,80)"/>
<path d="M0 0 C6.93359375 -0.09765625 6.93359375 -0.09765625 9 0 C10 1 10 1 10.0625 3.5625 C10.041875 4.366875 10.02125 5.17125 10 6 C9.34 6 8.68 6 8 6 C8 4.68 8 3.36 8 2 C5.69 2 3.38 2 1 2 C1.33 4.64 1.66 7.28 2 10 C1.34 9.67 0.68 9.34 0 9 C0 6.03 0 3.06 0 0 Z " fill="#311C0E" transform="translate(32,42)"/>
<path d="M0 0 C3.96 0.33 7.92 0.66 12 1 C10.515 2.485 10.515 2.485 9 4 C5.4375 3.875 5.4375 3.875 2 3 C1.34 2.01 0.68 1.02 0 0 Z " fill="#F4D024" transform="translate(9,83)"/>
<path d="M0 0 C0.66 0 1.32 0 2 0 C2 2.97 2 5.94 2 9 C0.02 9 -1.96 9 -4 9 C-4 8.01 -4 7.02 -4 6 C-2.68 6 -1.36 6 0 6 C0 4.02 0 2.04 0 0 Z " fill="#030F06" transform="translate(32,68)"/>
<path d="M0 0 C0.25 3.3125 0.25 3.3125 0 7 C-2 8.9375 -2 8.9375 -4 10 C-4.75 7.25 -4.75 7.25 -5 4 C-1.84210526 0 -1.84210526 0 0 0 Z " fill="#7E36CB" transform="translate(100,67)"/>
<path d="M0 0 C1.8871875 0.061875 1.8871875 0.061875 3.8125 0.125 C4.1425 1.115 4.4725 2.105 4.8125 3.125 C0.12284294 4.24158501 -2.72513531 3.93119523 -7.1875 2.125 C-4.09861478 0.06574319 -3.47814073 -0.1140374 0 0 Z " fill="#9A66C1" transform="translate(21.1875,55.875)"/>
<path d="M0 0 C4 0 4 0 5.75 1.375 C7 3 7 3 7 5 C3.95613276 5.08226668 1.92824652 4.97608217 -1 4 C-0.67 2.68 -0.34 1.36 0 0 Z " fill="#5687DC" transform="translate(67,80)"/>
<path d="M0 0 C0.99 0.33 1.98 0.66 3 1 C3 2.32 3 3.64 3 5 C2.34 5 1.68 5 1 5 C1 5.66 1 6.32 1 7 C-0.65 7.33 -2.3 7.66 -4 8 C-4 7.34 -4 6.68 -4 6 C-3.34 5.67 -2.68 5.34 -2 5 C-2 4.34 -2 3.68 -2 3 C-1.34 3 -0.68 3 0 3 C0 2.01 0 1.02 0 0 Z " fill="#7B787D" transform="translate(90,48)"/>
<path d="M0 0 C0.66 0 1.32 0 2 0 C2 1.65 2 3.3 2 5 C4.97 5 7.94 5 11 5 C11 5.33 11 5.66 11 6 C0.44191344 6.18451025 0.44191344 6.18451025 -4 5 C-2.71937515 3.2925002 -1.38232443 1.62626404 0 0 Z " fill="#341B2D" transform="translate(49,49)"/>
<path d="M0 0 C0.7425 0.2475 1.485 0.495 2.25 0.75 C1.92 1.74 1.59 2.73 1.25 3.75 C0.46625 3.853125 -0.3175 3.95625 -1.125 4.0625 C-4.08045181 4.52595022 -4.08045181 4.52595022 -5.75 7.75 C-6.5 6 -6.5 6 -6.75 3.75 C-4.62771652 0.72982736 -3.76812267 -0.34255661 0 0 Z " fill="#BB7CCF" transform="translate(78.75,42.25)"/>
<path d="M0 0 C0.66 0.66 1.32 1.32 2 2 C0.35 3.98 -1.3 5.96 -3 8 C-3.99 7.01 -4.98 6.02 -6 5 C-4.02 3.35 -2.04 1.7 0 0 Z " fill="#994ADE" transform="translate(78,36)"/>
<path d="M0 0 C1.98 0 3.96 0 6 0 C6 1.32 6 2.64 6 4 C6.99 4 7.98 4 9 4 C9 5.65 9 7.3 9 9 C8.67 8.01 8.34 7.02 8 6 C6.68 6 5.36 6 4 6 C4 4.68 4 3.36 4 2 C2.68 2 1.36 2 0 2 C0 1.34 0 0.68 0 0 Z " fill="#C6A9E3" transform="translate(29,13)"/>
<path d="M0 0 C0.33 0.99 0.66 1.98 1 3 C1.99 3 2.98 3 4 3 C4 3.66 4 4.32 4 5 C4.99 5 5.98 5 7 5 C7 5.66 7 6.32 7 7 C4.69 7 2.38 7 0 7 C0 4.69 0 2.38 0 0 Z " fill="#652FB0" transform="translate(0,93)"/>
<path d="M0 0 C0.99 0.33 1.98 0.66 3 1 C2.00102287 3.99693138 1.34869747 5.02709413 -1 7 C-1.66 7 -2.32 7 -3 7 C-3.33 7.66 -3.66 8.32 -4 9 C-3.46930939 5.17902761 -2.50298434 2.93828597 0 0 Z " fill="#8235BF" transform="translate(89,84)"/>
<path d="M0 0 C0.99 0 1.98 0 3 0 C3.042721 1.66611905 3.04063832 3.33382885 3 5 C2 6 2 6 -0.5625 6.0625 C-1.7690625 6.0315625 -1.7690625 6.0315625 -3 6 C-3 5.34 -3 4.68 -3 4 C-2.01 4 -1.02 4 0 4 C0 2.68 0 1.36 0 0 Z " fill="#E7D8F8" transform="translate(5,89)"/>
<path d="M0 0 C0.33 0 0.66 0 1 0 C1 2.97 1 5.94 1 9 C0.01 8.67 -0.98 8.34 -2 8 C-2 7.34 -2 6.68 -2 6 C-3.65 6 -5.3 6 -7 6 C-6.67 5.01 -6.34 4.02 -6 3 C-6 3.66 -6 4.32 -6 5 C-4.02 5 -2.04 5 0 5 C0 3.35 0 1.7 0 0 Z " fill="#040707" transform="translate(73,74)"/>
<path d="M0 0 C-1.0625 1.5 -1.0625 1.5 -3 3 C-6.6875 3.1875 -6.6875 3.1875 -10 3 C-10 2.34 -10 1.68 -10 1 C-6.78548731 -0.60725635 -3.56387464 -0.05748185 0 0 Z " fill="#59B8F6" transform="translate(93,44)"/>
<path d="M0 0 C0.33 0 0.66 0 1 0 C1.33 2.64 1.66 5.28 2 8 C0.02 8 -1.96 8 -4 8 C-4 7.01 -4 6.02 -4 5 C-2.68 5 -1.36 5 0 5 C0 3.35 0 1.7 0 0 Z " fill="#0C3410" transform="translate(32,60)"/>
<path d="M0 0 C2.05078125 0.03255208 4.1015625 0.06510417 6.15234375 0.09765625 C6.48234375 0.75765625 6.81234375 1.41765625 7.15234375 2.09765625 C1.73695913 3.32842548 1.73695913 3.32842548 -1.22265625 2.16015625 C-1.75890625 1.80953125 -2.29515625 1.45890625 -2.84765625 1.09765625 C-1.84765625 0.09765625 -1.84765625 0.09765625 0 0 Z " fill="#74C4E3" transform="translate(78.84765625,55.90234375)"/>
<path d="M0 0 C1.32 0.33 2.64 0.66 4 1 C2.35 2.98 0.7 4.96 -1 7 C-1.625 5.1875 -1.625 5.1875 -2 3 C-1.34 2.01 -0.68 1.02 0 0 Z " fill="#7496DE" transform="translate(58,55)"/>
<path d="M0 0 C0.33 0.99 0.66 1.98 1 3 C-1.31 4.98 -3.62 6.96 -6 9 C-4.86634892 4.46539569 -3.35806626 3.09975347 0 0 Z " fill="#7944C4" transform="translate(7,49)"/>
<path d="M0 0 C1.32 0 2.64 0 4 0 C2.80873219 2.38253561 1.61305574 3.12188876 -0.5625 4.625 C-1.20316406 5.07101563 -1.84382812 5.51703125 -2.50390625 5.9765625 C-2.99761719 6.31429687 -3.49132812 6.65203125 -4 7 C-3.67 5.35 -3.34 3.7 -3 2 C-2.01 2 -1.02 2 0 2 C0 1.34 0 0.68 0 0 Z " fill="#5CBC9F" transform="translate(5,48)"/>
<path d="M0 0 C2.97 0 5.94 0 9 0 C9 0.99 9 1.98 9 3 C6.03 2.67 3.06 2.34 0 2 C0 1.34 0 0.68 0 0 Z " fill="#325130" transform="translate(36,58)"/>
<path d="M0 0 C0.33 1.32 0.66 2.64 1 4 C0.01 4 -0.98 4 -2 4 C-2 5.32 -2 6.64 -2 8 C-3.32 8 -4.64 8 -6 8 C-6 7.34 -6 6.68 -6 6 C-5.34 6 -4.68 6 -4 6 C-4 5.01 -4 4.02 -4 3 C-2.68 3 -1.36 3 0 3 C0 2.01 0 1.02 0 0 Z " fill="#6785EA" transform="translate(99,31)"/>
<path d="M0 0 C1.32 0 2.64 0 4 0 C4 2 4 2 2.4375 3.625 C-0.80680433 5.45512039 -3.33724439 5.21131282 -7 5 C-7 4.67 -7 4.34 -7 4 C-5.02 3.67 -3.04 3.34 -1 3 C-0.67 2.01 -0.34 1.02 0 0 Z " fill="#969085" transform="translate(22,44)"/>
<path d="M0 0 C2 1 4 2 6 3 C6 4.32 6 5.64 6 7 C5.01 7 4.02 7 3 7 C2.690625 6.21625 2.38125 5.4325 2.0625 4.625 C1.07124962 2.07669872 1.07124962 2.07669872 0 0 Z " fill="#AB73CF" transform="translate(26,45)"/>
<path d="M0 0 C0.66 0.33 1.32 0.66 2 1 C0.66666667 3.66666667 -0.66666667 6.33333333 -2 9 C-2.125 5.625 -2.125 5.625 -2 2 C-1.34 1.34 -0.68 0.68 0 0 Z " fill="#B95BBA" transform="translate(48,53)"/>
</svg>
